<?xml version="1.0" encoding="UTF-8" standalone="no"?>
<!-- Created with Inkscape (http://www.inkscape.org/) -->

<svg
   width="210mm"
   height="297mm"
   viewBox="0 0 210 297"
   version="1.1"
   id="svg5"
   inkscape:export-filename="misfitlogo.svg"
   inkscape:export-xdpi="355.18491"
   inkscape:export-ydpi="355.18491"
   xmlns:inkscape="http://www.inkscape.org/namespaces/inkscape"
   xmlns:sodipodi="http://sodipodi.sourceforge.net/DTD/sodipodi-0.dtd"
   xmlns="http://www.w3.org/2000/svg"
   xmlns:svg="http://www.w3.org/2000/svg">
  <sodipodi:namedview
     id="namedview7"
     pagecolor="#ffffff"
     bordercolor="#000000"
     borderopacity="0.25"
     inkscape:showpageshadow="2"
     inkscape:pageopacity="0.0"
     inkscape:pagecheckerboard="0"
     inkscape:deskcolor="#d1d1d1"
     inkscape:document-units="mm"
     showgrid="false" />
  <defs
     id="defs2">
    <rect
       x="117.62931"
       y="138.91461"
       width="539.97455"
       height="295.75369"
       id="rect113" />
  </defs>
  <g
     inkscape:label="Layer 1"
     inkscape:groupmode="layer"
     id="layer1">
    <g
       aria-label="Misfit"
       transform="scale(0.26458333)"
       id="text111"
       style="font-size:48px;text-align:center;text-anchor:middle;white-space:pre;shape-inside:url(#rect113);fill:#808000">
      <path
         d="m 371.62051,183.48854 q 0,0.72656 -0.67969,0.72656 h -8.29687 q -0.67969,0 -0.67969,-0.82031 0,-2.36719 0.16406,-7.10156 0.1875,-4.73438 0.1875,-7.10157 0,-0.67968 -0.21094,-0.72656 -0.25781,0.14063 -3.14062,7.24219 -1.6875,4.17187 -3.375,8.32031 -0.23438,0.53906 -0.58594,0.63281 -0.11719,0.0234 -0.9375,0.0234 -1.21875,0 -1.45312,-0.46875 -1.26563,-2.57812 -3.32813,-7.5 -2.20312,-5.20312 -3.30469,-7.52344 -0.0469,-0.11718 -0.21093,-0.25781 -0.16407,0.21094 -0.16407,0.67969 0,2.29687 0.11719,6.89062 0.11719,4.59375 0.11719,6.89063 0,0.82031 -0.65625,0.82031 h -7.82813 q -0.46875,0 -0.58593,-0.14062 -0.0937,-0.16407 -0.0937,-0.53907 0,-2.55468 0.23437,-7.66406 0.25781,-5.13281 0.25781,-7.6875 0,-2.71875 -0.23437,-10.19531 -0.0234,-1.94531 -0.21094,-5.78906 l -0.0234,-0.39844 q -0.0234,-0.46875 0.98438,-0.46875 1.28906,0 3.86719,-0.0703 2.57812,-0.0937 3.86718,-0.0937 0.25782,0 0.72657,0.98437 l 6.84375,15.02344 q 0.72656,1.52344 1.21875,1.52344 0.25781,0 1.10156,-1.75782 2.36719,-4.92187 7.00781,-14.83593 0.39844,-0.91407 0.86719,-0.91407 0.67969,0 2.03906,0.0703 1.38281,0.0703 2.08594,0.0703 0.58594,0 1.78125,-0.11719 1.21875,-0.11719 1.80469,-0.11719 0.70312,0 0.70312,0.5625 0,2.76563 -0.21094,8.27344 -0.1875,5.48438 -0.1875,8.25 0,2.55469 0.21094,7.66406 0.21094,5.10938 0.21094,7.64063 z"
         style="font-weight:bold;font-family:'Berlin Sans FB Demi';-inkscape-font-specification:'Berlin Sans FB Demi, Bold';fill:#138800;fill-opacity:1"
         id="path275"
         inkscape:export-filename="path275.png"
         inkscape:export-xdpi="355.18491"
         inkscape:export-ydpi="355.18491" />
      <path
         d="m 381.73623,156.04323 q 0,4.07812 -4.59375,4.07812 -1.96875,0 -3.25781,-1.03125 -1.40625,-1.125 -1.40625,-3.04687 0,-1.82813 1.45312,-3 1.33594,-1.07813 3.21094,-1.07813 1.82813,0 3.16406,1.10156 1.42969,1.17188 1.42969,2.97657 z m -0.60937,17.41406 q 0,1.71094 0.0703,5.10937 0.0703,3.375 0.0703,5.0625 0,0.49219 -0.58594,0.58594 -0.79687,0.14063 -3.58593,0.14063 -2.8125,0 -3.60938,-0.14063 -0.51562,-0.0937 -0.63281,-0.30469 -0.0469,-0.0937 -0.0469,-0.70312 0,-1.61719 0.0703,-4.85156 0.0703,-3.25782 0.0703,-4.89844 0,-6.65625 -0.51563,-10.59375 -0.0469,-0.375 -0.0469,-0.49219 0,-0.46875 0.63281,-0.46875 0.65625,0 1.99219,0.14063 1.35937,0.14062 2.03906,0.14062 0.67969,0 2.03906,-0.11719 1.35938,-0.11718 2.03907,-0.11718 0.5625,0 0.5625,0.46875 0,0.0937 -0.0469,0.44531 -0.51562,4.57031 -0.51562,10.59375 z"
         style="font-weight:bold;font-family:'Berlin Sans FB Demi';-inkscape-font-specification:'Berlin Sans FB Demi, Bold';fill:#138800;fill-opacity:1"
         id="path277" />
      <path
         d="m 396.88574,165.25416 q 0,0.23438 -0.35156,0.63282 -0.65625,-0.16407 -1.3125,-0.16407 -1.38281,0 -2.32031,0.60938 -1.125,0.70312 -1.125,1.99219 0,0.82031 1.19531,2.08593 1.80469,1.89844 2.22656,2.55469 1.19531,1.78125 1.19531,3.82031 0,1.19532 -0.46875,2.53125 -0.53906,1.47657 -1.35937,2.15625 -1.73438,1.5 -4.05469,2.53125 -2.50781,1.07813 -4.61719,1.07813 -0.46875,0 -2.10937,-2.53125 -1.61719,-2.55469 -1.61719,-3.11719 0,-0.21094 0.25781,-0.25781 1.64063,-0.30469 3.30469,-0.60938 2.0625,-0.65625 2.0625,-2.15625 0,-1.03125 -1.19531,-2.39062 -2.13281,-2.36719 -2.22656,-2.50781 -1.19532,-1.6875 -1.19532,-3.5625 0,-3.51563 3.5625,-5.97657 3.1875,-2.17968 6.82032,-2.17968 0.375,0 1.85156,2.53125 1.47656,2.50781 1.47656,2.92968 z"
         style="font-weight:bold;font-family:'Berlin Sans FB Demi';-inkscape-font-specification:'Berlin Sans FB Demi, Bold';fill:#138800;fill-opacity:1"
         id="path279" />
      <path
         d="m 413.71846,168.28167 q 0.0572,0.55959 -0.54899,0.62157 -2.51813,0.25747 -3.97802,0.26538 0.24873,1.74155 0.63815,4.85873 0.15916,1.32662 0.68187,4.5951 0.46597,2.94443 0.63524,4.59987 0.0501,0.48963 -0.59564,0.62634 -0.78321,0.17427 -3.95418,0.49849 -2.63469,0.26938 -3.44174,0.21054 -0.80704,-0.0588 -0.89048,-0.8749 l -1.31357,-12.84703 q -0.0691,-0.67617 -1.00177,-0.58081 -0.16322,0.0167 -0.53389,0.0781 -0.34736,0.059 -0.51057,0.0757 -0.65285,0.0667 -0.71431,-0.30392 -0.41725,-2.00703 -0.81299,-5.87748 -0.0882,-0.8627 0.77873,-1.13981 0.78559,-0.15099 1.59689,-0.28107 -0.3073,-1.85336 -0.41458,-2.90258 -0.41004,-4.01034 0.96617,-5.98871 2.73151,-3.93104 9.65635,-4.63908 0.46631,-0.0477 0.58819,0.22258 0.2938,1.03015 0.85333,3.04619 0.0423,0.18415 0.43661,1.2747 0.29804,0.84124 0.34572,1.30756 0.0572,0.55958 -1.58152,0.89205 -1.89045,0.40533 -2.2834,0.94025 -0.68359,0.91805 -0.43328,3.36622 0.0787,0.76943 0.26438,1.43368 0.65285,-0.0667 2.02373,-0.25406 1.37086,-0.18731 2.07034,-0.25883 0.69948,-0.0715 0.75193,0.44142 0.11204,1.09585 0.3618,3.30849 0.24737,2.18931 0.35942,3.28516 z"
         style="font-weight:bold;font-family:'Berlin Sans FB Demi';-inkscape-font-specification:'Berlin Sans FB Demi, Bold';fill:#138800;fill-opacity:1"
         id="path281" />
      <path
         d="m 421.93823,158.53768 c -0.22369,2.70953 -1.8616,3.93831 -4.91371,3.68633 -1.30805,-0.10799 -2.36202,-0.53992 -3.16192,-1.2958 -0.87261,-0.82458 -1.2562,-1.87533 -1.15079,-3.15224 0.10028,-1.21461 0.66529,-2.17137 1.69503,-2.87026 0.94675,-0.64304 2.04299,-0.91314 3.28876,-0.81029 1.21462,0.10028 2.23552,0.55299 3.0627,1.35815 0.88561,0.85703 1.27892,1.88507 1.17993,3.08411 z m -1.20233,23.53614 c -0.0939,1.13676 -0.21062,2.83604 -0.35033,5.09783 -0.13842,2.24623 -0.2539,3.92993 -0.34646,5.05112 -0.027,0.32701 -0.23773,0.50559 -0.63215,0.53574 -0.53717,0.0497 -1.73228,-0.002 -3.58535,-0.15488 -1.86865,-0.15427 -3.06384,-0.29998 -3.58558,-0.43713 -0.33744,-0.0905 -0.5393,-0.20911 -0.60559,-0.35572 -0.026,-0.0648 -0.0221,-0.2997 0.0111,-0.70459 0.0887,-1.07448 0.24512,-2.68425 0.46923,-4.82933 0.22541,-2.16066 0.38311,-3.78601 0.4731,-4.87605 0.3651,-4.42245 0.48435,-7.95587 0.35774,-10.60025 -0.0105,-0.25173 -0.0134,-0.41649 -0.006,-0.49438 0.0257,-0.31144 0.2488,-0.44981 0.66923,-0.41509 0.43602,0.036 1.09398,0.13733 1.97386,0.30406 0.89548,0.168 1.569,0.27063 2.02058,0.30791 0.45159,0.0373 1.13219,0.0543 2.0418,0.051 0.9096,-0.003 1.59019,0.0137 2.04179,0.051 0.37372,0.0309 0.54774,0.202 0.52202,0.51344 -0.005,0.0622 -0.0329,0.20888 -0.0834,0.43994 -0.59327,3.00827 -1.05511,6.5134 -1.3855,10.51541 z"
         style="font-weight:bold;font-family:'Berlin Sans FB Demi';-inkscape-font-specification:'Berlin Sans FB Demi, Bold';fill:#e54400;fill-opacity:1"
         id="path283"
         sodipodi:nodetypes="sssscscsccscsccscsccscssssccc" />
      <path
         d="m 437.05788,178.85016 q -0.0672,0.6999 -0.39038,2.10515 -0.29988,1.40746 -0.36481,2.08404 -0.0627,0.65325 -0.22058,0.82646 -0.15789,0.1732 -0.82139,0.46272 -3.16857,1.36763 -6.83144,1.01612 -6.74246,-0.64705 -6.24766,-5.80306 0.14777,-1.5398 0.55995,-4.60821 0.41444,-3.09173 0.56221,-4.63153 0.0985,-1.02654 -1.09133,-1.14072 -0.0933,-0.009 -0.3033,-0.0291 -0.21222,0.003 -0.30554,-0.006 -0.88654,-0.0851 -0.8261,-0.715 0.0358,-0.37328 0.1564,-1.13871 0.14385,-0.76319 0.17969,-1.13646 0.0469,-0.48994 0.0733,-1.49986 0.0492,-1.0077 0.0966,-1.49762 0.0448,-0.46661 1.5424,-0.36997 0.84212,0.0573 0.95465,-0.37929 0.22507,-0.87312 0.36194,-2.79069 0.19557,-3.01857 0.18213,-2.87858 0.25973,-2.70633 0.77299,-2.65706 0.62991,0.0604 1.76957,0.45236 1.30072,0.43091 1.80951,0.52683 1.17417,0.2775 3.55032,0.78807 0.57878,0.10266 0.5452,0.45259 -0.0895,0.93322 -0.43422,2.80728 -0.32134,1.87634 -0.41313,2.83288 -0.10973,1.14319 0.56686,1.20812 0.81657,0.0783 2.47974,0.16731 1.66317,0.089 2.50307,0.16957 0.51326,0.0492 0.47968,0.3992 -0.0515,0.5366 -0.27115,1.5986 -0.21963,1.06201 -0.27113,1.59861 -0.0537,0.55992 -0.13346,1.63534 -0.0797,1.07543 -0.13347,1.63536 -0.0469,0.48994 -0.7236,0.42501 -0.46661,-0.0448 -1.5609,-0.1733 -1.09204,-0.15191 -1.55865,-0.19669 l -1.74977,-0.16787 q -0.34996,-0.0337 -0.44847,0.99295 -0.0537,0.55992 -0.15894,1.65646 -0.0841,1.12209 -0.13563,1.65869 -0.18807,1.95975 0.18358,2.74885 0.53364,1.06366 2.37675,1.24052 0.58326,0.056 1.68106,-0.098 1.12338,-0.17473 1.56667,-0.13221 0.48993,0.0469 0.44066,0.56029 z"
         style="font-weight:bold;font-family:'Berlin Sans FB Demi';-inkscape-font-specification:'Berlin Sans FB Demi, Bold';fill:#138800;fill-opacity:1"
         id="path285" />
      <text
         xml:space="preserve"
         style="font-style:normal;font-variant:normal;font-weight:bold;font-stretch:normal;font-size:48px;font-family:'Berlin Sans FB Demi';-inkscape-font-specification:'Berlin Sans FB Demi, Bold';font-variant-ligatures:normal;font-variant-caps:normal;font-variant-numeric:normal;font-variant-east-asian:normal;text-align:center;text-anchor:middle;fill:#808000"
         x="330.76242"
         y="261.58517"
         id="text446"><tspan
           sodipodi:role="line"
           id="tspan444"
           x="330.76242"
           y="261.58517" /></text>
      <text
         xml:space="preserve"
         style="font-style:normal;font-variant:normal;font-weight:bold;font-stretch:normal;font-size:48px;font-family:'Berlin Sans FB Demi';-inkscape-font-specification:'Berlin Sans FB Demi, Bold';font-variant-ligatures:normal;font-variant-caps:normal;font-variant-numeric:normal;font-variant-east-asian:normal;text-align:center;text-anchor:middle;fill:#138800;fill-opacity:1"
         x="337.85495"
         y="279.23532"
         id="text6987"><tspan
           sodipodi:role="line"
           id="tspan6985"
           x="337.85495"
           y="279.23532">Misfit</tspan></text>
    </g>
  </g>
</svg>
